<svg xmlns="http://www.w3.org/2000/svg" viewBox="0 0 800 300">
  <g fill="none" fill-rule="evenodd">
    <!-- Angular Logo - Centered and scaled -->
    <g transform="translate(250, 20) scale(0.8)">
      <polygon fill="#DD0031" points="125 30 125 30 125 30 31.9 63.2 46.1 186.3 125 230 125 230 125 230 203.9 186.3 218.1 63.2"/>
      <polygon fill="#C3002F" points="125 30 125 52.2 125 52.1 125 153.4 125 153.4 125 230 125 230 203.9 186.3 218.1 63.2 125 30"/>
      <path fill="#FFFFFF" d="M125,52.1L66.8,182.6h0h21.7h0l11.7-29.2h49.4l11.7,29.2h0h21.7h0L125,52.1L125,52.1L125,52.1L125,52.1 L125,52.1z M142,135.4H108l17-40.9L142,135.4z"/>
    </g>
    
    <!-- Version 16 Badge -->
    <text x="400" y="270" font-family="Arial, sans-serif" font-size="32" font-weight="600" fill="#DD0031" text-anchor="middle">v16</text>
  </g>
</svg>
